<svg xmlns="http://www.w3.org/2000/svg" width="169" height="22" viewBox="0 0 169 22">
    <path fill="#FFF" fill-rule="evenodd" d="M168.453 0v16.438c0 1.371-.566 2.753-1.551 3.787-1.08 1.134-2.582 1.775-4.227 1.775H5.778C2.208 22 0 19.056 0 16.313V0h168.453zm-19.697.413H55.503v15.914c0 2.254-1.569 4.585-4.175 5.26h93.204V5.69c0-2.269 1.587-4.618 4.224-5.277zm3.356 3.712V17.89l11.341-6.883-11.34-6.882zM78.617 5.194c3.205 0 5.81 2.608 5.81 5.816a5.818 5.818 0 0 1-5.81 5.812 5.82 5.82 0 0 1-5.814-5.812 5.821 5.821 0 0 1 5.814-5.816zM6.506 1.543a.543.543 0 0 0-.542.541v9.188c0 2.67 2.18 5.55 5.704 5.55 3.412 0 5.703-2.978 5.703-5.756 0-3.507-2.962-5.68-5.704-5.68-2.568 0-4.054 1.558-4.619 2.308v-5.61a.543.543 0 0 0-.542-.541zm17.248 3.846a5.724 5.724 0 0 0-5.716 5.716 5.723 5.723 0 0 0 5.716 5.717 5.689 5.689 0 0 0 4.866-2.712.56.56 0 0 0-.163-.77.556.556 0 0 0-.777.159 4.572 4.572 0 0 1-3.926 2.202 4.601 4.601 0 0 1-4.596-4.596 4.601 4.601 0 0 1 4.596-4.595 4.57 4.57 0 0 1 4.56 4.02l-5.36-.001a.563.563 0 1 0 .004 1.127h-.001 5.95c.39 0 .564-.277.564-.55a5.724 5.724 0 0 0-5.717-5.717zm7.817.024c-.617.002-1.065.476-1.1.93v9.56c.035.444.483.917 1.095.919.611-.002 1.067-.487 1.1-.92V6.334c-.033-.433-.489-.918-1.095-.92zm16.641-.021c-.599.002-1.053.484-1.087.927v7.046c0 .194-.129.809-.703 1.081-1.198.57-1.813-.423-1.84-.465l-4.394-6.923c-.578-1.003-2.216-2.204-4.364-1.405-2.109.866-2.158 3.073-2.16 3.098l.002 7.193c.034.422.464.876 1.1.878.587-.002 1.078-.459 1.078-1V8.939c-.003-.052-.074-1.24 1.35-1.367.822-.048 1.24.813 1.25.835.163.267 4.002 6.33 4.41 6.95.323.493 1.34 1.465 2.843 1.465.455 0 .953-.09 1.49-.308 2.215-.9 2.11-3.14 2.109-3.156V6.303c-.036-.439-.48-.91-1.084-.911zm19.14-.199a5.8 5.8 0 0 1 3.09.89c.045.031.09.054.135.083.016.011.028.022.043.031.303.206.584.437.844.699l.003.002.014.016c.022.026.033.058.05.086.041.053.079.106.101.165.02.052.02.103.031.157.007.05.017.1.012.152a.707.707 0 0 1-.197.469.723.723 0 0 1-.512.208.76.76 0 0 1-.527-.21c-.003-.002-.005-.004-.007-.009-.068-.065-.148-.114-.217-.175v-.02l-.02-.016c-.056-.046-.119-.081-.177-.126-.13-.1-.258-.2-.398-.285-.067-.043-.14-.077-.213-.114a4.603 4.603 0 0 0-.523-.25c-.02-.007-.038-.01-.056-.018a4.355 4.355 0 0 0-1.475-.27l-.068.001h-.035a4.309 4.309 0 0 0-3.96 2.803c-.007.019-.01.04-.017.058-.08.23-.15.464-.192.706-.015.085-.013.172-.022.257-.02.176-.046.35-.046.526 0 .175.026.349.046.523.01.085.007.173.022.258.043.24.112.476.192.706.007.018.01.04.018.056a4.313 4.313 0 0 0 3.959 2.805h.035l.068.001c.514 0 1.006-.102 1.473-.271.02-.007.038-.01.058-.017a4.07 4.07 0 0 0 .523-.25c.073-.037.146-.072.213-.115.14-.085.268-.183.398-.284.058-.046.121-.08.177-.127l.02-.017v-.018c.069-.061.15-.11.217-.177a.76.76 0 0 1 .534-.217c.193 0 .377.073.512.208.126.128.19.295.197.47.005.05-.005.1-.012.15-.01.054-.01.107-.03.158a.655.655 0 0 1-.101.164c-.018.03-.029.06-.051.089-.005.006-.01.01-.012.011l-.002.002c-.27.272-.563.511-.872.72-.002.003-.013.008-.015.011-.052.036-.108.062-.159.095a5.786 5.786 0 0 1-3.068.879l-.164-.001c-.038-.003-.07-.009-.107-.01a6.335 6.335 0 0 1-.484-.038 6.007 6.007 0 0 1-.547-.098c-.01-.002-.02-.002-.03-.005a5.767 5.767 0 0 1-2.993-1.774 5.734 5.734 0 0 1-1.354-2.739c-.004-.033-.02-.065-.026-.102-.04-.219-.045-.444-.06-.669-.007-.125-.032-.252-.032-.377 0-.127.025-.253.032-.38.015-.224.02-.45.06-.67.006-.034.022-.068.026-.101a5.745 5.745 0 0 1 4.348-4.513c.01-.003.02-.003.03-.005a5.622 5.622 0 0 1 1.03-.136c.037-.001.07-.006.107-.007.054-.004.11-.004.164-.004zm57.748 0c1.111 0 2.17.316 3.089.89.046.031.093.054.136.083.015.011.028.022.044.031.3.206.582.437.844.699v.002c.006.005.008.01.013.016.026.026.033.058.053.086a.78.78 0 0 1 .103.165c.018.052.02.103.026.157a.693.693 0 0 1-.695.829.771.771 0 0 1-.527-.21c-.002-.002-.007-.004-.01-.009-.064-.065-.144-.114-.214-.175v-.02l-.02-.016c-.055-.046-.12-.081-.176-.126-.13-.1-.258-.2-.398-.285-.07-.043-.143-.077-.213-.114a4.603 4.603 0 0 0-.524-.25c-.02-.007-.037-.01-.055-.018a4.376 4.376 0 0 0-1.476-.27l-.067.001h-.036a4.309 4.309 0 0 0-3.115 1.419 4.272 4.272 0 0 0-.845 1.384c-.007.019-.01.04-.016.058-.08.23-.152.464-.192.706-.018.085-.013.172-.023.257-.02.176-.045.35-.045.526 0 .175.025.349.045.523.01.085.005.173.023.258.04.24.111.476.192.706.007.018.01.04.016.056a4.313 4.313 0 0 0 3.96 2.805h.036l.067.001c.512 0 1.004-.102 1.473-.271.02-.007.038-.01.058-.017a4.07 4.07 0 0 0 .524-.25c.07-.037.143-.072.213-.115.14-.085.268-.183.398-.284.056-.046.12-.08.176-.127l.02-.017v-.018c.07-.061.15-.11.215-.177a.766.766 0 0 1 .536-.217c.197 0 .374.073.51.208a.688.688 0 0 1 .185.62c-.006.054-.008.107-.026.158a.743.743 0 0 1-.103.164c-.02.03-.027.06-.053.089-.005.006-.007.01-.01.011l-.003.002a5.71 5.71 0 0 1-.87.72l-.016.011c-.052.036-.105.062-.157.095a5.796 5.796 0 0 1-3.07.879l-.163-.001c-.038-.003-.072-.009-.108-.01a6.383 6.383 0 0 1-.483-.038 5.795 5.795 0 0 1-.547-.098c-.01-.002-.02-.002-.032-.005a5.77 5.77 0 0 1-2.991-1.774 5.698 5.698 0 0 1-1.352-2.739c-.007-.033-.022-.065-.028-.102-.04-.219-.045-.444-.06-.669-.01-.125-.032-.252-.032-.377 0-.127.022-.253.033-.38.014-.224.019-.45.059-.67.006-.034.021-.068.028-.101a5.709 5.709 0 0 1 1.352-2.74 5.778 5.778 0 0 1 2.99-1.773l.033-.005a5.438 5.438 0 0 1 1.03-.136c.036-.001.07-.006.108-.007.056-.004.108-.004.163-.004zm-16.593.028c.43 0 .768.35.768.799v8.418c-.01.185-.122 1.697-1.533 2.178a2.9 2.9 0 0 1-.96.179c-.898 0-1.597-.422-2.145-1.287-.206-.325-1.053-2.492-1.872-4.588-.657-1.672-1.334-3.405-1.475-3.648-.153-.263-.64-.36-.881-.284-.466.15-.616.612-.616.756v8.24c0 .448-.348.81-.773.81a.788.788 0 0 1-.78-.795V7.586c.005-.133.098-1.692 1.553-2.186.352-.12.664-.179.956-.179.894 0 1.596.422 2.144 1.289.207.325 1.055 2.491 1.876 4.586.652 1.673 1.329 3.406 1.472 3.647.151.265.643.363.882.285.45-.142.604-.564.604-.736V6.02c0-.44.35-.799.78-.799zm-12.69 0c.434 0 .77.35.77.799v8.403c-.002.072-.059 1.692-1.534 2.193a2.887 2.887 0 0 1-.957.179c-.899 0-1.599-.422-2.147-1.287-.204-.325-1.053-2.492-1.871-4.588-.654-1.672-1.333-3.405-1.474-3.648-.154-.263-.642-.36-.881-.284-.466.15-.62.612-.62.756l.003 8.24c0 .448-.347.81-.776.81a.789.789 0 0 1-.78-.795V7.594c0-.015.042-1.68 1.553-2.194.354-.12.667-.179.96-.179.892 0 1.595.422 2.144 1.289.206.325 1.054 2.491 1.872 4.586.655 1.673 1.333 3.406 1.476 3.647.15.265.642.363.88.285.45-.142.607-.564.607-.736L95.04 6.02c0-.44.35-.799.778-.799zm19.141.193l2.596.013c.36.056.624.356.624.72a.745.745 0 0 1-.753.737h-2.818c-1.328.128-2.191 1.134-2.191 2.558v.83l3.93.006c.415 0 .754.33.754.737 0 .404-.34.735-.754.735h-3.93v.804c0 1.542 1.005 2.576 2.506 2.576l2.61.008c.369.056.646.36.646.727a.744.744 0 0 1-.635.727v.01h-2.597c-.977 0-2.09-.103-2.913-.867-.747-.697-1.107-1.738-1.107-3.184V9.447c0-1.446.36-2.488 1.107-3.186.803-.744 1.88-.847 2.925-.847zm22.832.003a.73.73 0 0 1 0 1.46h-2.525v8.995c0 .4-.327.726-.732.726a.726.726 0 0 1-.728-.726l-.002-8.995h-2.525a.73.73 0 0 1 0-1.46zM11.65 6.454c2.53 0 4.59 2.069 4.59 4.613 0 2.543-2.06 4.613-4.59 4.613-2.529 0-4.587-2.07-4.587-4.613 0-2.544 2.058-4.613 4.587-4.613zm66.966.151a4.41 4.41 0 0 0-4.405 4.405 4.41 4.41 0 0 0 4.405 4.402c2.425 0 4.401-1.975 4.401-4.402a4.408 4.408 0 0 0-4.4-4.405z"/>
</svg>
